<?xml version="1.0" encoding="utf-8"?>
<!-- Generator: Adobe Illustrator 27.6.1, SVG Export Plug-In . SVG Version: 6.00 Build 0)  -->
<svg version="1.1" id="Layer_1" xmlns="http://www.w3.org/2000/svg" xmlns:xlink="http://www.w3.org/1999/xlink" x="0px" y="0px"
	 viewBox="0 0 575 95.6" style="enable-background:new 0 0 575 95.6;" xml:space="preserve">
<style type="text/css">
	.st0{fill:#52ADC2;}
</style>
<g>
	<path class="st0" d="M101.08,52.97c0-10.43-4.02-19.83-18.81-19.83l-0.47,0c-7.22,0.09-12.93,2.17-16.03,4.02l2.39,8.21
		c3.08-1.88,7.35-3.25,11.71-3.25c0.69,0,1.33,0.04,1.92,0.11c5.31,0.62,6.63,3.96,6.63,8.19c-2.32,0-4.53,0.13-6.63,0.41
		c-11.58,1.5-19.36,7.19-19.36,17.55c0,7.69,5.47,14.28,14.28,14.28c1.79,0,3.5-0.24,5.09-0.71c3.12-0.92,5.75-2.7,7.57-5.19h0.26
		l0.77,4.96h11.37c-0.51-2.91-0.68-7.1-0.68-11.29V52.97z M88.77,65.37c0,5.44-3.99,7.72-6.97,8.14c-0.34,0.05-0.67,0.07-0.98,0.07
		c-3.16,0-5.98-1.97-5.98-6.5c0-4.5,2.99-6.76,6.97-7.79c2.14-0.56,4.57-0.76,6.97-0.76V65.37z"/>
	<path class="st0" d="M180.85,52.97c0-10.43-4.02-19.83-18.81-19.83l-0.47,0c-7.22,0.09-12.93,2.17-16.03,4.02l2.39,8.21
		c3.08-1.88,7.35-3.25,11.71-3.25c0.69,0,1.33,0.04,1.92,0.11c5.31,0.62,6.63,3.96,6.63,8.19c-2.32,0-4.53,0.13-6.63,0.41
		c-11.58,1.5-19.36,7.19-19.36,17.55c0,7.69,5.47,14.28,14.28,14.28c1.79,0,3.5-0.24,5.09-0.71c3.12-0.92,5.75-2.7,7.57-5.19h0.26
		l0.77,4.96h11.37c-0.51-2.91-0.68-7.1-0.68-11.29V52.97z M168.53,65.37c0,5.44-3.99,7.72-6.97,8.14c-0.34,0.05-0.67,0.07-0.98,0.07
		c-3.16,0-5.98-1.97-5.98-6.5c0-4.5,2.99-6.76,6.97-7.79c2.14-0.56,4.57-0.76,6.97-0.76V65.37z"/>
	<rect x="192.13" y="12.96" class="st0" width="12.65" height="68.74"/>
	<path class="st0" d="M126.9,21.68l-12.48,3.68v8.72h-6.24v9.32h6.24v21.97c0,5.3,0.26,17.18,13.94,17.18
		c3.68,0,6.75-0.43,8.46-1.11l-0.17-9.66c-1.28,0.26-2.31,0.43-4.1,0.43c-3.85,0-5.64-2.39-5.64-8.12V43.39h10.52v-9.32H126.9V21.68
		z"/>
	<path class="st0" d="M48.25,43.05c3.51,0,5.81,0.77,7.44,1.54l2.05-9.66c-2.05-0.85-5.81-1.8-9.92-1.8
		c-15.73,0-24.96,10.94-24.96,25.22c0,15.13,9.06,24.19,23,24.19c5.04,0,9.4-1.03,11.54-2.05l-1.37-9.49
		c-2.05,0.94-4.53,1.54-7.69,1.54c-7.27,0-12.65-5.39-12.65-14.7C35.68,49.46,40.3,43.05,48.25,43.05z"/>
	<path class="st0" d="M377.74,42.37h-0.34l-0.51-8.29h-10.86c0.17,4.27,0.34,8.98,0.34,14.88V81.7h12.65V57.07
		c0-8.12,4.36-11.97,10.09-11.97c1.28,0,2.31,0.09,3.25,0.26V33.31c-0.85-0.17-1.62-0.26-2.82-0.26
		C385.09,33.05,379.96,36.21,377.74,42.37z"/>
	<path class="st0" d="M511.62,33.05c-0.4,0-0.8,0.01-1.2,0.03c-13.19,0.66-20.61,12.16-20.61,25.45c0,13.94,7.44,22.94,20.61,23.93
		c0.81,0.06,1.63,0.09,2.48,0.09c5.9,0,11.46-1.03,15.39-2.74l-1.8-8.72c-3.25,1.11-6.92,1.97-11.63,1.97
		c-1.55,0-3.05-0.17-4.44-0.52c-4.75-1.2-8.29-4.57-8.55-10.85h8.55h19.92c0.26-1.37,0.34-3.16,0.34-5.04
		C530.68,41.26,523.16,33.05,511.62,33.05z M510.42,52.88h-8.55c0.33-4.59,2.79-10.73,8.55-11.02c0.14-0.01,0.28-0.01,0.43-0.01
		c6.24,0,8.21,6.07,8.12,11.03H510.42z"/>
	<path class="st0" d="M466.74,57.16c-1.03,4.19-1.88,8.04-2.65,12.14h-0.26c-0.77-4.1-1.62-8.04-2.65-12.14l-6.24-23.08h-13.59
		l15.99,47.62h12.23l16.24-47.62h-13.08L466.74,57.16z"/>
	<rect x="539.49" y="12.96" class="st0" width="12.65" height="68.74"/>
	<path class="st0" d="M288.23,33.14c-6.92,0-11.63,3.93-13.76,7.44h-0.26l-0.6-6.5h-10.94c0.17,4.2,0.34,8.73,0.34,14.31V81.7h12.65
		V53.35c0-7.22,4.7-9.87,8.12-9.87c5.39,0,7.27,4.62,7.27,10.43V81.7h12.65V52.49C303.7,39.21,296.95,33.14,288.23,33.14z"/>
	<path class="st0" d="M251.72,52.97c0-10.43-4.02-19.83-18.81-19.83l-0.47,0c-7.22,0.09-12.93,2.17-16.03,4.02l2.39,8.21
		c3.08-1.88,7.35-3.25,11.71-3.25c0.69,0,1.33,0.04,1.92,0.11c5.31,0.62,6.63,3.96,6.63,8.19c-2.32,0-4.53,0.13-6.63,0.41
		c-11.58,1.5-19.36,7.19-19.36,17.55c0,7.69,5.47,14.28,14.28,14.28c1.79,0,3.5-0.24,5.09-0.71c3.12-0.92,5.75-2.7,7.57-5.19h0.26
		l0.77,4.96h11.37c-0.51-2.91-0.68-7.1-0.68-11.29V52.97z M239.41,65.37c0,5.44-3.99,7.72-6.97,8.14c-0.34,0.05-0.67,0.07-0.98,0.07
		c-3.16,0-5.98-1.97-5.98-6.5c0-4.5,2.99-6.76,6.97-7.79c2.14-0.56,4.57-0.76,6.97-0.76V65.37z"/>
	<path class="st0" d="M434.93,52.97c0-10.43-4.02-19.83-18.81-19.83l-0.47,0c-7.22,0.09-12.93,2.17-16.03,4.02l2.39,8.21
		c3.08-1.88,7.35-3.25,11.71-3.25c0.69,0,1.33,0.04,1.92,0.11c5.31,0.62,6.63,3.96,6.63,8.19c-2.32,0-4.53,0.13-6.63,0.41
		c-11.58,1.5-19.36,7.19-19.36,17.55c0,7.69,5.47,14.28,14.28,14.28c1.79,0,3.5-0.24,5.09-0.71c3.12-0.92,5.75-2.7,7.57-5.19h0.26
		l0.77,4.96h11.37c-0.51-2.91-0.68-7.1-0.68-11.29V52.97z M422.62,65.37c0,5.44-3.99,7.72-6.97,8.14c-0.34,0.05-0.67,0.07-0.98,0.07
		c-3.16,0-5.98-1.97-5.98-6.5c0-4.5,2.99-6.76,6.97-7.79c2.14-0.56,4.57-0.76,6.97-0.76V65.37z"/>
	<path class="st0" d="M347.99,21.68l-12.48,3.68v8.72h-6.24v9.32h6.24v21.97c0,5.3,0.26,17.18,13.94,17.18
		c3.68,0,6.75-0.43,8.46-1.11l-0.17-9.66c-1.28,0.26-2.31,0.43-4.1,0.43c-3.85,0-5.64-2.39-5.64-8.12V43.39h10.52v-9.32h-10.52
		V21.68z"/>
</g>
</svg>
